<?xml version="1.0" standalone="no"?>
<!DOCTYPE svg PUBLIC "-//W3C//DTD SVG 20010904//EN"
 "http://www.w3.org/TR/2001/REC-SVG-20010904/DTD/svg10.dtd">
<svg version="1.0" xmlns="http://www.w3.org/2000/svg"
 width="1250.000000pt" height="1250.000000pt" viewBox="0 0 1250.000000 1250.000000"
 preserveAspectRatio="xMidYMid meet">
<metadata>
Created by potrace 1.14, written by Peter Selinger 2001-2017
</metadata>
<g transform="translate(0.000000,1250.000000) scale(0.100000,-0.100000)"
fill="#000000" stroke="none">
<path d="M6057 12124 c-1 -1 -60 -5 -132 -8 -135 -7 -215 -13 -275 -21 -19 -3
-60 -7 -90 -10 -30 -3 -82 -10 -115 -15 -33 -5 -80 -12 -105 -16 -85 -11 -119
-18 -255 -45 -55 -12 -109 -23 -120 -25 -189 -36 -695 -193 -870 -269 -16 -7
-86 -37 -155 -66 -281 -118 -649 -318 -938 -511 -164 -109 -506 -366 -542
-408 -3 -3 -36 -32 -74 -65 -600 -517 -1134 -1230 -1472 -1969 -184 -400 -357
-936 -430 -1331 -9 -49 -18 -99 -20 -110 -2 -11 -7 -38 -9 -60 -3 -22 -8 -47
-10 -55 -2 -8 -7 -40 -10 -70 -3 -30 -8 -66 -10 -80 -4 -27 -12 -100 -19 -165
-3 -22 -7 -80 -11 -130 -3 -49 -8 -120 -11 -156 -11 -139 -4 -587 11 -739 2
-25 7 -74 10 -110 3 -36 8 -83 11 -105 2 -22 7 -58 10 -80 5 -43 13 -103 20
-147 4 -27 7 -48 19 -120 6 -31 41 -207 51 -253 3 -11 9 -38 14 -60 140 -637
449 -1349 833 -1925 70 -104 242 -342 283 -390 12 -14 66 -79 121 -145 460
-552 1068 -1044 1718 -1392 92 -49 363 -183 370 -183 2 0 32 -13 67 -29 295
-135 853 -312 1158 -367 14 -3 57 -11 95 -19 78 -16 232 -40 314 -50 30 -4 61
-8 70 -10 9 -1 52 -6 96 -10 44 -4 92 -8 106 -10 200 -25 872 -25 1099 0 19 2
67 7 105 10 39 3 77 8 85 10 8 2 42 7 75 10 70 7 268 39 375 61 41 9 86 18
100 21 106 20 411 106 581 163 604 203 1186 514 1657 883 161 127 152 120 337
280 210 183 507 504 738 797 338 429 668 1040 870 1610 77 217 181 587 211
750 2 14 12 66 21 115 23 119 22 116 39 225 8 52 18 124 21 160 4 36 9 73 11
84 2 10 6 53 9 95 4 42 8 92 10 111 5 39 18 396 18 480 0 79 -13 415 -17 437
-2 10 -7 63 -10 118 -4 55 -9 107 -11 115 -2 8 -7 40 -10 70 -62 551 -244
1201 -478 1710 -101 219 -118 252 -252 495 -129 233 -358 564 -564 815 -279
340 -635 683 -976 944 -512 391 -1119 708 -1715 895 -186 58 -479 135 -590
155 -14 2 -63 11 -110 20 -101 18 -122 21 -260 40 -145 20 -243 30 -425 42
-85 5 -643 12 -648 8z m438 -578 c77 -4 151 -8 165 -10 14 -3 62 -7 107 -11
46 -3 91 -8 100 -9 10 -2 44 -7 77 -11 32 -3 68 -8 80 -10 11 -2 39 -6 61 -9
47 -7 233 -43 290 -56 128 -29 266 -64 302 -76 23 -7 52 -15 65 -18 13 -2 77
-22 143 -44 576 -191 1076 -451 1540 -800 884 -665 1550 -1610 1881 -2670 25
-81 47 -154 49 -163 2 -9 12 -52 24 -95 21 -85 58 -243 65 -284 3 -14 7 -34 9
-45 3 -11 8 -40 12 -65 4 -25 9 -54 11 -65 2 -10 6 -37 9 -60 6 -45 15 -108
20 -145 2 -14 7 -54 10 -90 3 -36 8 -83 10 -105 25 -242 25 -653 0 -910 -10
-96 -17 -162 -20 -185 -2 -14 -7 -45 -10 -70 -15 -112 -37 -239 -61 -352 -14
-68 -27 -134 -30 -147 -9 -43 -73 -275 -103 -371 -123 -396 -290 -764 -532
-1169 -26 -45 -222 -336 -229 -341 -3 -3 -21 -26 -38 -52 -18 -25 -38 -52 -44
-60 -7 -7 -32 -38 -55 -68 -23 -30 -50 -64 -60 -75 -10 -11 -31 -36 -47 -55
-103 -126 -327 -357 -486 -502 -272 -247 -597 -485 -919 -673 -114 -66 -470
-247 -513 -261 -13 -4 -50 -19 -83 -34 -130 -58 -373 -144 -580 -205 -134 -39
-412 -105 -505 -120 -19 -3 -60 -10 -90 -15 -83 -14 -107 -18 -210 -30 -52 -6
-108 -13 -125 -15 -244 -32 -918 -26 -1125 10 -14 3 -50 7 -80 10 -30 3 -82
10 -115 15 -33 5 -78 12 -100 16 -187 29 -539 116 -760 189 -71 23 -258 90
-285 102 -8 3 -17 7 -20 7 -44 9 -517 235 -625 298 l-40 24 0 4594 0 4595 40
23 c328 192 814 388 1230 497 130 35 375 88 450 99 22 3 51 8 65 10 29 5 74
12 145 22 84 11 98 12 170 19 39 4 86 9 105 11 19 2 109 6 200 10 91 4 166 7
167 8 2 2 141 -2 288 -8z m-3440 -5286 c0 -2321 -1 -4220 -3 -4220 -7 0 -130
98 -252 199 -236 198 -580 561 -758 800 -31 42 -59 78 -62 81 -4 3 -26 34 -51
70 -24 36 -46 67 -49 70 -9 9 -83 122 -133 205 -195 318 -352 637 -461 940
-26 72 -51 140 -56 152 -52 129 -179 633 -205 818 -3 22 -8 52 -11 67 -3 15
-7 41 -9 58 -2 17 -6 47 -9 68 -5 35 -9 71 -20 182 -27 257 -27 809 -1 1015 2
17 7 57 10 90 7 65 8 72 30 220 12 79 71 379 90 455 39 157 160 543 199 635 7
17 32 77 56 135 102 249 287 601 446 843 269 411 618 812 964 1107 36 30 67
58 70 61 5 6 211 169 214 169 0 0 1 -1899 1 -4220z"/>
</g>
</svg>
